Coordinates
version=1
nRows=12
nColumns=42
inDegrees=yes

Units are S.I. units (second, meters, Newtons, ...)
If the header above contains a line with 'inDegrees', this indicates whether rotational values are in degrees (yes) or radians (no).

endheader
time	pelvis_tilt	pelvis_list	pelvis_rotation	pelvis_tx	pelvis_ty	pelvis_tz	hip_flexion_r	hip_adduction_r	hip_rotation_r	knee_angle_r	knee_adduction_r	knee_angle_r_beta	ankle_angle_r	subtalar_angle_r	mtp_angle_r	hip_flexion_l	hip_adduction_l	hip_rotation_l	knee_angle_l	knee_adduction_l	knee_angle_l_beta	ankle_angle_l	subtalar_angle_l	mtp_angle_l	lumbar_extension	lumbar_bending	lumbar_rotation	arm_flex_r	arm_add_r	arm_rot_r	elbow_flex_r	pro_sup_r	wrist_flex_r	wrist_dev_r	arm_flex_l	arm_add_l	arm_rot_l	elbow_flex_l	pro_sup_l	wrist_flex_l	wrist_dev_l
      0.74000000	      3.98199162	     -0.99599366	      1.41307357	     -0.00255161	      0.98498306	     -0.24416064	     16.76560785	      0.53442241	     -7.99594147	     48.18795259	     -1.87510657	      0.84103843	      2.58848749	    -14.58546665	     -7.63926977	     -6.77085754	      1.44812829	     -0.72584610	      7.81731800	     -0.43239821	      0.13643794	      8.66805108	      0.82885178	     -7.63926977	    -15.14887585	     -1.15022776	      0.00008937	    -10.66788625	     -9.32405311	      1.93355501	     33.64855031	     90.00000001	      0.00000000	      0.00000000	      1.73544378	    -10.58241567	      4.92893490	     31.37019690	     90.00000001	      0.00000000	      0.00000000
      0.75000000	      3.61009492	     -0.82255593	      1.51560378	      0.01088641	      0.98340084	     -0.24498611	     18.10961481	      0.19402107	     -8.06627512	     45.90794330	     -1.62108747	      0.80124476	      2.82020032	    -14.04596526	     -7.63773746	     -7.34110286	      1.72831597	     -0.83686005	      7.62878421	     -0.55689024	      0.13314740	      9.11459847	      0.91709166	     -7.63773746	    -14.73369554	     -1.16957096	     -0.18599448	    -11.14568134	     -9.48132608	      1.83580428	     33.60784442	     90.00000001	      0.00000000	      0.00000000	      2.47732360	    -10.52162719	      5.19557049	     32.18695964	     90.00000001	      0.00000000	      0.00000000
      0.76000000	      3.93065373	     -1.32439266	      1.89052566	      0.02488254	      0.98257449	     -0.24527369	     18.25609697	      0.70377947	     -8.23695739	     42.81444941	     -1.27913224	      0.74725311	      3.23187817	    -13.58464835	     -7.63205516	     -8.97410312	      1.02793422	     -0.09278844	      6.85105397	     -0.34709342	      0.11957345	      9.77799025	      0.94133166	     -7.63205516	    -15.05422376	     -0.43572577	     -0.34453920	    -11.55563517	     -9.51065270	      1.10840386	     33.50554106	     90.00000001	      0.00000000	      0.00000000	      3.11658585	    -11.01864562	      7.68936826	     33.58254115	     90.00000001	      0.00000000	      0.00000000
      0.77000000	      3.52775357	     -1.07240260	      1.90326024	      0.03820356	      0.98032381	     -0.24592489	     19.48822649	      0.31952829	     -8.40937740	     40.18124928	     -1.19393659	      0.70129510	      3.38205848	    -12.90841777	     -7.63045632	     -9.47489331	      1.41323537	     -0.18036378	      6.73933399	     -0.48496996	      0.11762357	     10.27395135	      0.96658385	     -7.63045632	    -14.63176998	     -0.55598269	     -0.46732067	    -11.94016360	     -9.64898189	      0.98927209	     33.48079844	     90.00000001	      0.00000000	      0.00000000	      3.88805631	    -10.99446340	      7.99636689	     34.40846772	     90.00000001	      0.00000000	      0.00000000
      0.78000000	      3.60805055	     -1.42540573	      2.14714919	      0.05206201	      0.97859833	     -0.24600967	     19.77938048	      0.67472488	     -8.71316814	     36.80766194	     -1.02894644	      0.64241489	      3.92393339	    -11.71287574	     -7.62654071	    -10.69150375	      0.87229188	      0.30631090	      6.27050370	     -0.24194996	      0.10944094	     11.05668756	      0.89830863	     -7.62654071	    -14.70079256	     -0.01898481	     -0.58325385	    -12.20825340	     -9.62920362	      0.34849805	     33.20082115	     90.00000001	      0.00000000	      0.00000000	      4.56494292	    -11.37589567	      9.86952713	     35.65380929	     90.00000001	      0.00000000	      0.00000000
      0.79000000	      3.83233106	     -1.58000038	      2.28453570	      0.06596802	      0.97674992	     -0.24612426	     19.92734437	      0.86456930	     -9.55625661	     33.41748887	     -1.31571113	      0.58324521	      4.10948259	    -10.12546126	     -7.62075846	    -12.02301637	      0.64498895	      0.52967264	      5.91766977	     -0.17919937	      0.10328282	     11.46209134	      0.64085716	     -7.62075846	    -14.94600149	      0.29961737	     -0.57473308	    -12.53059531	     -9.63844897	     -0.23279976	     33.14349698	     90.00000001	      0.00000000	      0.00000000	      5.42683905	    -11.64558303	     11.35470489	     36.63954094	     90.00000001	      0.00000000	      0.00000000
      0.80000000	      3.72656646	     -1.56980333	      2.32024588	      0.07963398	      0.97424156	     -0.24626664	     20.40766931	      0.85680063	    -10.12334071	     30.05169455	     -1.43163575	      0.52450102	      4.48100536	     -8.33471854	     -7.61567185	    -12.90589226	      0.63516621	      0.61999552	      5.74111453	     -0.10081659	      0.10020135	     12.02962184	      0.43722559	     -7.61567185	    -14.85159846	      0.42648194	     -0.59763796	    -12.72459073	     -9.65885188	     -0.65545920	     32.87811925	     90.00000001	      0.00000000	      0.00000000	      6.21067672	    -11.81091273	     12.34938050	     37.59181875	     90.00000001	      0.00000000	      0.00000000
      0.81000000	      3.23380138	     -1.10262030	      2.15954906	      0.09306188	      0.97095908	     -0.24650138	     21.46282184	      0.30700775	    -10.64952049	     27.09825644	     -1.46423638	      0.47295380	      4.48398892	     -7.42650717	     -7.61433062	    -13.26373590	      1.28761017	      0.33914068	      5.78325565	     -0.23923217	      0.10093685	     12.54919388	      0.35925147	     -7.61433062	    -14.36261872	      0.02084503	     -0.57009899	    -12.99607835	     -9.71468569	     -0.74420501	     32.76999390	     90.00000001	      0.00000000	      0.00000000	      6.98554867	    -11.79341162	     12.56687594	     38.33547441	     90.00000001	      0.00000000	      0.00000000
      0.82000000	      2.76452496	     -0.82462005	      2.10600458	      0.10629948	      0.96772600	     -0.24663314	     22.16829379	      0.05446821	    -10.69390788	     23.64692038	     -1.35946327	      0.41271662	      4.49271942	     -5.64763617	     -7.61271365	    -13.63567185	      1.68783008	      0.30181772	      5.82091443	     -0.33783411	      0.10159412	     13.18196576	      0.31753294	     -7.61271365	    -13.94861721	     -0.15872956	     -0.68544839	    -13.01694531	     -9.70829455	     -0.99869290	     32.46465246	     90.00000001	      0.00000000	      0.00000000	      7.72414566	    -11.92207465	     13.16282212	     39.15422194	     90.00000001	      0.00000000	      0.00000000
      0.83000000	      3.37647374	     -1.37793569	      2.19027683	      0.12089084	      0.96578117	     -0.24588672	     21.34437185	      0.83661150	    -11.77648329	     19.79835297	     -1.60634393	      0.34554645	      5.03409339	     -2.39252502	     -7.60817440	    -15.40630894	      0.81412767	      0.11454820	      5.51446128	      0.09101034	      0.09624551	     13.68763837	      0.26187078	     -7.60817440	    -14.59116510	      0.55243620	     -0.48728691	    -13.00889751	     -9.55326950	     -2.02591393	     31.88279925	     90.00000001	      0.00000000	      0.00000000	      8.59441221	    -12.29410864	     14.93161924	     40.10260278	     90.00000001	      0.00000000	      0.00000000
      0.84000000	      2.91687367	     -0.95979366	      2.13103606	      0.13443856	      0.96233654	     -0.24606052	     21.98553636	      0.34731711	    -12.12751024	     16.84816221	     -1.37743444	      0.29405590	      4.82870953	     -0.70592314	     -7.60620218	    -15.80893128	      1.33663711	      0.02869669	      5.56451822	      0.05429824	      0.09711916	     14.15511961	      0.32087247	     -7.60620218	    -14.17675747	      0.23322106	     -0.59345660	    -13.07000933	     -9.56094912	     -2.19525533	     31.66416852	     90.00000001	      0.00000000	      0.00000000	      9.31348047	    -12.30693426	     15.14813491	     40.76611291	     90.00000001	      0.00000000	      0.00000000
      0.85000000	      3.11945234	     -1.06567710	      2.17481815	      0.14888734	      0.95972765	     -0.24569641	     21.71219979	      0.54259737	    -13.12056252	     13.93424842	     -1.39352827	      0.24319851	      4.93325101	      1.65491691	     -7.60152185	    -17.06521197	      1.08245261	     -0.25632701	      5.40587649	      0.26095989	      0.09435034	     14.53120021	      0.41524230	     -7.60152185	    -14.41302586	      0.48303930	     -0.58835367	    -13.05646371	     -9.47003818	     -2.84968899	     31.25577294	     90.00000001	      0.00000000	      0.00000000	     10.04564057	    -12.40451733	     15.77754948	     41.45474467	     90.00000001	      0.00000000	      0.00000000
